<?xml version="1.0" standalone="no"?>
<!DOCTYPE svg PUBLIC "-//W3C//DTD SVG 20010904//EN"
 "http://www.w3.org/TR/2001/REC-SVG-20010904/DTD/svg10.dtd">
<svg version="1.0" xmlns="http://www.w3.org/2000/svg"
 width="1724.000000pt" height="704.000000pt" viewBox="0 0 862.000000 352.000000"
 preserveAspectRatio="xMidYMid meet">

<g transform="translate(0.000000,352.000000) scale(0.100000,-0.100000)"
fill="#000000" stroke="none">
<path d="M3930 2885 c-875 -297 -1054 -360 -1085 -380 -16 -11 -43 -45 -58
-75 -24 -47 -28 -64 -25 -121 4 -74 -6 -54 197 -372 174 -270 528 -811 574
-879 24 -34 63 -97 87 -138 82 -143 209 -328 246 -358 20 -17 58 -36 84 -42
44 -10 56 -8 172 29 69 23 129 41 135 41 5 0 31 -27 57 -60 26 -33 51 -60 55
-60 4 0 17 22 28 50 l21 50 61 0 c34 0 61 3 61 6 0 3 -16 24 -35 47 -25 29
-32 43 -23 48 7 4 312 109 678 235 366 125 667 229 670 231 3 3 -9 14 -25 26
-50 35 -107 98 -126 141 -23 51 -25 163 -4 232 8 27 15 51 15 53 0 3 -12 -6
-26 -20 -40 -38 -64 -83 -78 -150 l-12 -61 -645 -249 c-354 -137 -738 -287
-854 -333 -129 -51 -214 -80 -220 -74 -5 5 -10 37 -9 71 0 47 7 74 26 112 53
102 -72 49 1460 616 230 85 418 156 418 159 0 6 -39 47 -489 525 -614 650
-816 860 -830 862 -9 1 -234 -72 -501 -162z m180 -450 c55 -69 107 -125 114
-125 8 0 67 20 132 45 l118 44 42 -37 c23 -20 41 -41 40 -47 -1 -5 -58 -31
-125 -57 -68 -26 -126 -49 -128 -52 -4 -4 93 -129 389 -502 17 -21 16 -21 -84
-59 l-100 -38 -17 20 c-9 12 -99 130 -200 262 -101 133 -188 241 -193 241 -4
0 -66 -22 -138 -49 l-130 -49 -37 45 c-20 25 -32 47 -27 52 5 4 61 27 124 51
63 23 119 46 124 51 4 4 -35 64 -88 134 -53 69 -96 130 -96 134 0 7 142 58
167 60 7 1 58 -55 113 -124z m-950 -157 c0 -4 -24 -19 -53 -32 -69 -33 -125
-92 -147 -155 l-17 -51 -38 56 c-35 53 -37 60 -26 94 16 53 67 105 141 145
l65 35 37 -42 c21 -24 38 -46 38 -50z m1828 -635 c2 -15 -5 -26 -25 -37 -15
-8 -21 -15 -13 -15 8 -1 22 3 30 9 9 6 17 5 22 -3 14 -22 8 -46 -12 -52 -11
-3 -20 -10 -20 -15 0 -6 11 -5 26 0 38 15 44 13 44 -18 0 -23 -6 -29 -45 -43
-42 -15 -46 -15 -54 0 -17 31 -61 145 -61 156 0 14 67 44 90 42 8 -1 16 -12
18 -24z m-160 -103 c24 -60 24 -61 58 -54 32 6 34 4 34 -20 0 -26 -15 -37 -73
-51 -20 -5 -25 3 -55 79 -34 86 -35 106 -4 106 12 0 25 -19 40 -60z m-84 4 c3
-9 6 -22 6 -30 0 -8 9 -23 21 -35 22 -22 20 -59 -4 -87 -15 -19 -79 -44 -88
-35 -14 15 -59 136 -59 159 0 13 9 25 28 32 43 16 89 14 96 -4z m-135 -101
c35 -89 38 -108 15 -117 -9 -4 -18 -5 -20 -4 -7 8 -64 160 -64 172 0 13 13 23
31 25 4 1 21 -34 38 -76z m-94 21 c9 -9 14 -23 10 -32 -3 -8 3 -21 15 -29 25
-18 27 -75 3 -98 -17 -18 -56 -35 -78 -35 -12 0 -75 140 -75 166 0 13 64 43
92 43 9 1 24 -6 33 -15z m-706 -130 c19 -24 32 -46 30 -48 -2 -1 -25 -13 -51
-25 -93 -44 -160 -113 -179 -185 l-11 -40 -19 24 c-10 14 -28 44 -40 66 -20
36 -21 45 -10 71 15 36 72 97 123 130 31 21 101 52 118 52 3 0 20 -20 39 -45z
m1796 -51 c9 -21 30 -55 46 -76 17 -21 29 -40 27 -42 -2 -2 -287 -101 -633
-220 l-630 -216 -42 48 c-34 39 -39 50 -28 58 13 9 1222 482 1237 484 4 1 15
-16 23 -36z m-1437 -572 c18 -22 32 -44 32 -48 0 -11 -188 -73 -222 -73 -26 0
-89 37 -95 56 -4 11 204 101 238 103 9 1 30 -17 47 -38z"/>
<path d="M4678 1493 c7 -3 16 -2 19 1 4 3 -2 6 -13 5 -11 0 -14 -3 -6 -6z"/>
<path d="M4700 1430 c0 -5 6 -10 14 -10 8 0 18 5 21 10 3 6 -3 10 -14 10 -12
0 -21 -4 -21 -10z"/>
<path d="M4450 1410 c0 -5 4 -10 9 -10 6 0 13 5 16 10 3 6 -1 10 -9 10 -9 0
-16 -4 -16 -10z"/>
<path d="M4485 1349 c-4 -6 -5 -13 -2 -16 7 -7 27 6 27 18 0 12 -17 12 -25 -2z"/>
</g>
</svg>
